<svg xmlns="http://www.w3.org/2000/svg" viewBox="0 0 1280 320" role="img" aria-label="Your companion for the Intility Developer Platform — early alpha">
  <defs>
    <!-- Bifrost dark base background -->
    <linearGradient id="bg" x1="0" y1="0" x2="1" y2="1">
      <stop offset="0%" stop-color="#071627"/>
      <stop offset="100%" stop-color="#0f2133"/>
    </linearGradient>

    <!-- Hexagonal cube faces — pink, bright top with highlight gradient -->
    <linearGradient id="hexTop" x1="0" y1="0" x2="1" y2="1">
      <stop offset="0%" stop-color="#ffe4f1"/>
      <stop offset="45%" stop-color="#ff9fd4"/>
      <stop offset="100%" stop-color="#ff66c4"/>
    </linearGradient>
    <linearGradient id="hexLeft" x1="0" y1="0" x2="0" y2="1">
      <stop offset="0%" stop-color="#cc1f7f"/>
      <stop offset="100%" stop-color="#7a0d4a"/>
    </linearGradient>
    <linearGradient id="hexRight" x1="0" y1="0" x2="0" y2="1">
      <stop offset="0%" stop-color="#ff66c4"/>
      <stop offset="100%" stop-color="#bd006e"/>
    </linearGradient>
  </defs>

  <!-- Background -->
  <rect width="1280" height="320" fill="url(#bg)"/>

  <!-- Faint architectural lines in top-right -->
  <g stroke="#ffffff" stroke-width="1" fill="none" opacity="0.05">
    <line x1="1280" y1="0"   x2="900"  y2="380"/>
    <line x1="1280" y1="60"  x2="960"  y2="380"/>
    <line x1="1280" y1="140" x2="1060" y2="380"/>
    <line x1="1100" y1="0"   x2="1280" y2="180"/>
    <line x1="1180" y1="0"   x2="1280" y2="100"/>
    <line x1="980"  y1="0"   x2="1280" y2="280"/>
    <line x1="1200" y1="0"   x2="900"  y2="320"/>
  </g>

  <!-- Soft pink glow under the icon -->
  <ellipse cx="160" cy="220" rx="120" ry="20" fill="#ff66c4" opacity="0.12"/>

  <!-- Hexagonal Developer Platform icon -->
  <g transform="translate(80, 75)">
    <!-- Drop shadow -->
    <ellipse cx="80" cy="160" rx="60" ry="6" fill="#000000" opacity="0.4"/>

    <!-- Cube faces (160 wide × 150 tall) -->
    <polygon points="0,40 0,110 80,150 80,75"     fill="url(#hexLeft)"/>
    <polygon points="160,40 160,110 80,150 80,75" fill="url(#hexRight)"/>
    <polygon points="80,0 160,40 80,75 0,40"      fill="url(#hexTop)"/>

    <!-- Edge highlights for the folded 3D feel -->
    <line x1="80"  y1="0"   x2="0"   y2="40"  stroke="#ffffff" stroke-width="1"   opacity="0.55"/>
    <line x1="80"  y1="0"   x2="160" y2="40"  stroke="#ffffff" stroke-width="0.5" opacity="0.3"/>
    <line x1="0"   y1="40"  x2="80"  y2="75"  stroke="#ffffff" stroke-width="0.4" opacity="0.18"/>
  </g>

  <!-- Title -->
  <text x="280" y="170" font-family="'Satoshi', 'Satoshi Variable', system-ui, -apple-system, 'Segoe UI', Roboto, Helvetica, Arial, sans-serif" font-size="58" font-weight="800" fill="#f3f3f6" letter-spacing="-1.5">Developer Platform Plugin</text>

  <!-- Subtitle -->
  <text x="282" y="210" font-family="'Open Sans', system-ui, -apple-system, 'Segoe UI', Roboto, Helvetica, Arial, sans-serif" font-size="20" font-weight="400" fill="#8a98a8">Claude's guide to the Intility Developer Platform.</text>

  <!-- ALPHA pill — top-right, Bifrost attn pink -->
  <g transform="translate(1080, 60)">
    <rect width="124" height="28" rx="14" fill="#ff6bc4"/>
    <circle cx="18" cy="14" r="4" fill="#590d44"/>
    <text x="71" y="19" font-family="'Satoshi', 'Satoshi Variable', system-ui, -apple-system, 'Segoe UI', Roboto, Helvetica, Arial, sans-serif" font-size="11" font-weight="700" letter-spacing="2" fill="#590d44" text-anchor="middle">EARLY ALPHA</text>
  </g>
</svg>
